{
  "title": "M.S. Dhoni The Untold Story (2016) - 720p - DesiSCR-Rip - Hindi",
  "uid": 15942378,
  "size": 1507673041,
  "categoryP": "video",
  "categoryS": "movies",
  "magnet": "?xt=urn:btih:a3d7ee6f334bce2bd7c3e8c413c7273ba1025510&amp;dn=M.S.+Dhoni+The+Untold+Story+%282016%29+-+720p+-+DesiSCR-Rip+-+Hindi+&amp;tr=udp%3A%2F%2Ftracker.leechers-paradise.org%3A6969&amp;tr=udp%3A%2F%2Fzer0day.ch%3A1337&amp;tr=udp%3A%2F%2Fopen.demonii.com%3A1337&amp;tr=udp%3A%2F%2Ftracker.coppersurfer.tk%3A6969&amp;tr=udp%3A%2F%2Fexodus.desync.com%3A6969",
  "seeders": 227,
  "leechers": 203,
  "uploader": "makintos13",
  "files": 3,
  "time": 1475465052,
  "description": "M.S. Dhoni The Untold Story (2016) - 720p - DesiSCR-Rip - Hindi - x264 - AC3 2.0 - Mafiaking - M2Tv\r\n\r\n\r\nScreens:\r\n \nhttps://imgmak.com/atZ\r\n \nhttps://imgmak.com/atc\r\n \nhttps://imgmak.com/atn\r\n\r\n\r\nRatings: 8.9/10\r\n\r\nGenere: Biography, Sport\r\n2700 doug\r\nFormat : Matroska\r\nFormat version : Version 4 / Version 2\r\nFile size : 1.40 GiB\r\nDuration : 3 h 4 min\r\nOverall bit rate : 1 086 kb/s\r\nMovie name : M.S. Dhoni The Untold Story (2016) - 720p - DesiSCR-Rip - Hindi - x264 - AC3 2.0 - Mafiaking - M2Tv\r\nEncoded date : UTC 2016-10-01 17:30:31\r\nWriting application : mkvmerge v7.0.0 ('Where We Going') 32bit built on Jun 9 2014 15:08:34\r\nWriting library : libebml v1.3.0 + libmatroska v1.4.1\r\n\r\nVideo\r\nID : 1\r\nFormat : AVC\r\nFormat/Info : Advanced Video Codec\r\nFormat profile :   \r\nFormat settings, CABAC : Yes\r\nFormat settings, ReFrames : 3 frames\r\nCodec ID : V_MPEG4/ISO/AVC\r\nDuration : 3 h 4 min\r\nBit rate : 925 kb/s\r\nWidth : 1 280 pixels\r\nHeight : 544 pixels\r\nDisplay aspect ratio : 2.35:1\r\nFrame rate mode : Constant\r\nFrame rate : 29.970 (30000/1001) FPS\r\nColor space : YUV\r\nChroma subsampling : 4:2:0\r\nBit depth : 8 bits\r\nScan type : Progressive\r\nBits/(Pixel*Frame) : 0.044\r\nStream size : 1.19 GiB (85%)\r\nTitle : Mafiaking\r\nLanguage : Hindi\r\nDefault : Yes\r\nForced : No\r\n\r\nAudio\r\nID : 2\r\nFormat : AC-3\r\nFormat/Info : Audio Coding 3\r\nMode extension : CM (complete main)\r\nFormat settings, Endianness : Big\r\nCodec ID : A_AC3\r\nDuration : 3 h 4 min\r\nBit rate mode : Constant\r\nBit rate : 160 kb/s\r\nChannel(s) : 2 channels\r\nChannel positions : Front: L R\r\nSampling rate : 44.1 kHz\r\nFrame rate : 28.711 FPS (1536 spf)\r\nCompression mode : Lossy\r\nStream size : 211 MiB (15%)\r\nTitle : Mafiaking\r\nLanguage : Hindi\r\nDefault : Yes\r\nForced : No\r\n\r\nNot true HD",
  "parsed": {
    "xt": "urn:btih:a3d7ee6f334bce2bd7c3e8c413c7273ba1025510",
    "dn": "M.S. Dhoni The Untold Story (2016) - 720p - DesiSCR-Rip - Hindi ",
    "tr": [
      "udp://exodus.desync.com:6969",
      "udp://open.demonii.com:1337",
      "udp://tracker.coppersurfer.tk:6969",
      "udp://tracker.leechers-paradise.org:6969",
      "udp://zer0day.ch:1337"
    ],
    "infoHash": "a3d7ee6f334bce2bd7c3e8c413c7273ba1025510",
    "infoHashBuffer": {
      "type": "Buffer",
      "data": [
        163,
        215,
        238,
        111,
        51,
        75,
        206,
        43,
        215,
        195,
        232,
        196,
        19,
        199,
        39,
        59,
        161,
        2,
        85,
        16
      ]
    },
    "name": "M.S. Dhoni The Untold Story (2016) - 720p - DesiSCR-Rip - Hindi ",
    "announce": [
      "udp://exodus.desync.com:6969",
      "udp://open.demonii.com:1337",
      "udp://tracker.coppersurfer.tk:6969",
      "udp://tracker.leechers-paradise.org:6969",
      "udp://zer0day.ch:1337"
    ],
    "urlList": []
  },
  "previous": 221,
  "peers": 100,
  "last_updated": "2016-12-27T09:04:37.284Z"
}